<?xml version="1.0" standalone="no"?>
<!DOCTYPE svg PUBLIC "-//W3C//DTD SVG 20010904//EN"
 "http://www.w3.org/TR/2001/REC-SVG-20010904/DTD/svg10.dtd">
<svg version="1.0" xmlns="http://www.w3.org/2000/svg"
 width="236.000000pt" height="236.000000pt" viewBox="0 0 236.000000 236.000000"
 preserveAspectRatio="xMidYMid meet">

<g transform="translate(0.000000,236.000000) scale(0.100000,-0.100000)"
fill="#000000" stroke="none">
<path d="M0 1834 l0 -527 49 5 c27 3 56 1 65 -4 12 -7 22 -2 40 16 13 15 32
26 42 26 11 0 32 7 48 15 15 8 35 15 43 15 8 0 12 4 9 9 -3 5 3 11 15 14 24 7
37 -17 20 -37 -10 -12 -8 -13 8 -9 11 3 27 16 36 29 18 28 35 23 34 -9 0 -21
-1 -21 -8 -2 -8 19 -9 18 -12 -5 -2 -13 -14 -30 -26 -36 -13 -6 -20 -13 -17
-16 3 -3 2 -17 -2 -32 -5 -21 -12 -26 -38 -27 -28 -1 -27 -2 12 -15 10 -3 8
-11 -8 -34 -12 -16 -17 -30 -11 -30 5 0 12 8 15 18 4 10 13 19 21 19 11 0 10
-6 -6 -28 -21 -30 -26 -50 -7 -31 7 7 16 12 21 12 5 0 -3 -10 -19 -22 -16 -12
-32 -27 -36 -33 -5 -6 -11 -5 -17 4 -5 8 -11 9 -15 3 -3 -6 -1 -12 6 -14 9 -3
8 -9 -5 -22 -9 -10 -17 -25 -17 -34 0 -11 7 -6 20 14 17 26 88 84 104 84 3 0
0 -15 -5 -32 -5 -18 -9 -70 -9 -115 l0 -81 -47 -23 -47 -23 29 -12 c17 -7 38
-13 48 -14 21 0 22 -18 2 -46 -17 -25 -45 -102 -45 -125 0 -22 27 -32 46 -16
26 20 64 60 97 100 17 20 35 37 39 37 7 0 28 -64 28 -86 0 -6 -11 -24 -24 -39
-14 -16 -33 -44 -43 -62 -10 -18 -25 -33 -34 -33 -10 0 -39 17 -66 38 -26 21
-68 46 -93 56 -25 10 -54 26 -65 36 -11 9 -55 40 -97 68 l-78 51 0 -289 c0
-283 0 -290 20 -290 26 0 26 -15 -1 -33 -15 -11 -17 -16 -7 -20 10 -4 10 -6 1
-6 -10 -1 -13 -27 -13 -96 l0 -95 109 0 c95 0 118 3 173 26 92 38 281 126 298
139 27 21 152 97 153 93 54 -110 92 -154 191 -218 59 -39 63 -40 146 -40 47 0
80 4 74 8 -7 4 -17 39 -23 77 -6 39 -26 117 -45 175 -19 58 -33 106 -32 107 0
1 49 -44 108 -100 l108 -102 1 -71 c1 -39 -1 -76 -5 -82 -5 -9 13 -12 66 -12
79 0 132 21 209 81 44 35 96 113 105 157 l6 32 27 -19 c14 -10 132 -71 263
-135 l236 -116 96 0 96 0 0 75 c0 58 -3 75 -14 75 -8 0 -23 3 -33 6 -15 5 -16
4 -3 -5 11 -9 -10 -11 -87 -9 -96 1 -123 8 -88 22 8 3 21 3 29 0 8 -3 15 3 18
14 4 12 18 23 37 27 17 4 35 14 40 24 6 11 24 18 52 20 24 1 45 3 46 5 2 2 2
132 1 289 l-3 287 -115 -76 c-63 -42 -128 -82 -143 -90 -16 -9 -126 -79 -245
-158 -249 -163 -278 -181 -311 -191 -23 -7 -24 -6 -17 34 3 23 12 60 20 81 12
36 7 55 -9 30 -3 -5 -11 -10 -18 -10 -6 0 17 28 52 62 96 94 127 148 160 285
32 132 38 132 16 -2 -8 -49 -13 -90 -12 -91 1 -2 13 6 27 18 16 13 19 18 8 14
-35 -11 -16 19 36 61 46 36 54 48 59 84 6 47 -6 89 -25 89 -7 0 -24 -17 -37
-37 -20 -31 -22 -41 -13 -65 8 -22 7 -31 -5 -43 -22 -23 -25 -19 -17 33 8 57
62 152 86 152 41 0 51 -96 18 -169 -11 -24 -19 -45 -18 -46 35 -29 110 -43
137 -26 11 7 9 14 -12 35 -24 24 -45 81 -34 93 3 3 20 2 37 -2 22 -5 41 -21
63 -52 31 -43 32 -44 35 -19 2 14 -4 50 -12 80 -9 30 -16 56 -16 59 0 2 19 1
43 -4 68 -13 105 -10 158 12 l49 22 -40 34 c-37 32 -72 104 -57 119 9 9 72
-25 106 -58 l31 -30 0 53 c0 39 3 50 10 39 7 -11 10 -1 10 36 0 45 -3 52 -26
63 -24 10 -26 10 -20 -6 6 -14 4 -15 -5 -6 -15 15 -3 34 16 26 10 -3 13 -1 10
9 -3 8 1 21 10 28 12 10 15 34 15 111 l0 99 -40 0 c-47 0 -122 28 -117 44 6
17 81 19 121 2 l36 -15 0 410 0 410 -307 -1 c-267 -1 -310 -3 -325 -17 -10 -9
-18 -12 -18 -7 -1 5 -9 -7 -20 -26 -11 -19 -19 -29 -20 -22 0 17 -20 15 -20
-2 0 -14 -29 -26 -67 -26 -33 0 -28 14 12 33 19 9 35 21 35 27 0 6 8 10 17 8
10 -2 19 4 21 15 3 16 -31 17 -606 17 l-609 0 -5 -63 c-9 -104 -77 -229 -103
-187 -3 6 2 10 11 10 15 0 15 3 -4 20 -12 12 -22 27 -22 35 0 8 -6 12 -12 10
-18 -7 -39 40 -25 54 7 7 7 15 -1 24 -7 8 -8 18 -4 22 4 5 2 5 -5 1 -14 -8
-33 22 -34 56 -1 23 -1 23 -9 -2 -8 -24 -8 -24 -9 -2 -1 21 -4 22 -116 22
l-115 0 0 -526z m667 439 c-3 -10 -5 -4 -5 12 0 17 2 24 5 18 2 -7 2 -21 0
-30z m455 -35 c-7 -7 -12 -8 -12 -2 0 14 12 26 19 19 2 -3 -1 -11 -7 -17z
m-499 -175 c-3 -24 -9 -41 -13 -38 -4 2 -5 -7 -2 -22 4 -19 2 -24 -8 -18 -13
8 -9 50 9 99 15 39 21 30 14 -21z m120 22 c-3 -9 -8 -14 -10 -11 -3 3 -2 9 2
15 9 16 15 13 8 -4z m-156 -152 c-3 -10 -5 -2 -5 17 0 19 2 27 5 18 2 -10 2
-26 0 -35z m-80 -31 c7 -8 11 -18 8 -23 -4 -5 2 -6 11 -2 11 4 15 3 10 -5 -3
-6 -2 -13 4 -17 5 -3 10 -12 10 -18 0 -7 -4 -6 -10 3 -8 12 -10 12 -16 -3 -3
-9 -10 -14 -16 -11 -5 3 -12 -2 -14 -12 -8 -29 -127 -103 -178 -111 -16 -3
-41 -12 -54 -21 -21 -14 -24 -14 -21 -2 3 8 59 51 126 95 l122 80 -5 45 c-2
25 -1 38 3 30 3 -8 12 -21 20 -28z m33 -107 c0 -18 -7 -26 -24 -31 -14 -3 -33
-16 -42 -27 -10 -12 -12 -16 -4 -9 8 6 21 12 30 12 12 -1 12 -3 -3 -14 -13
-10 -15 -15 -5 -18 7 -3 -3 -9 -22 -13 -19 -4 -49 -18 -66 -31 -42 -33 -49
-30 -22 8 33 45 67 75 111 95 23 10 37 24 37 35 0 10 2 18 5 18 3 0 5 -11 5
-25z m-30 -125 c0 -5 -5 -10 -11 -10 -5 0 -7 5 -4 10 3 6 8 10 11 10 2 0 4 -4
4 -10z m-47 -47 c-3 -10 -10 -23 -15 -30 -5 -7 -11 -24 -13 -39 -1 -15 -10
-33 -19 -39 -9 -7 -16 -21 -16 -31 0 -10 -10 -30 -21 -44 l-20 -25 6 40 c9 51
31 100 69 148 33 41 38 45 29 20z m7 -53 c0 -5 -5 -10 -11 -10 -5 0 -7 5 -4
10 3 6 8 10 11 10 2 0 4 -4 4 -10z m-43 -127 c-3 -10 -5 -4 -5 12 0 17 2 24 5
18 2 -7 2 -21 0 -30z m699 -30 c10 -27 34 -65 52 -85 19 -21 30 -38 26 -38
-13 0 -104 55 -138 83 l-29 24 23 31 c13 18 29 32 36 32 7 0 21 -21 30 -47z
m-243 -110 c-34 -41 -40 -69 -9 -44 8 7 27 11 43 9 23 -2 28 -9 35 -42 5 -22
16 -49 26 -59 24 -28 91 -56 132 -57 52 -1 14 -19 -44 -21 -25 -1 -46 -4 -46
-5 0 -2 21 -9 47 -15 l46 -12 -24 -20 -24 -20 24 8 c28 8 70 28 121 55 52 28
70 26 70 -9 0 -16 5 -42 10 -56 9 -24 8 -26 -10 -20 -13 4 -31 -1 -49 -14 -38
-27 -43 -26 -31 5 18 45 10 40 -16 -11 -14 -27 -35 -61 -47 -74 -21 -23 -21
-24 -2 -17 58 21 69 18 115 -30 25 -25 45 -52 45 -58 0 -7 28 -12 75 -14 78
-3 179 -18 189 -28 8 -7 -37 -44 -53 -44 -7 0 -12 -10 -12 -22 1 -18 -13 -30
-64 -57 -83 -44 -65 -50 36 -12 l79 30 -52 -48 c-49 -46 -54 -48 -125 -55 -76
-7 -163 5 -223 30 -48 20 -57 18 -50 -8 13 -48 38 -84 75 -111 47 -33 60 -34
60 -3 0 26 33 56 60 56 9 0 24 -6 34 -13 27 -20 12 -53 -35 -73 -21 -10 -39
-22 -39 -27 0 -11 161 -4 195 8 l20 7 -20 -13 c-12 -8 -64 -14 -130 -16 l-110
-4 -85 46 c-47 25 -117 61 -157 81 -86 42 -124 85 -162 186 -22 55 -29 66 -33
50 -4 -12 -12 -22 -20 -22 -26 0 -170 103 -180 129 -13 36 0 148 23 193 11 21
21 38 24 38 5 0 35 -55 35 -64 0 -2 -8 -2 -18 1 -24 6 -41 -15 -46 -60 -5 -35
-4 -37 19 -31 29 7 29 7 9 -41 -11 -28 -12 -40 -4 -45 6 -4 11 -10 11 -14 -2
-17 1 -22 30 -38 43 -25 56 -23 74 13 16 30 14 66 -3 55 -5 -3 -23 4 -42 15
-30 19 -31 22 -17 36 14 14 19 13 54 -16 20 -17 46 -31 56 -31 16 0 15 4 -8
43 -29 51 -34 77 -10 57 9 -8 15 -9 15 -2 0 6 -5 14 -11 18 -14 8 -7 100 9
116 7 7 23 4 54 -11 60 -29 74 -27 49 5 -21 27 -51 112 -51 146 0 10 17 48 38
83 31 54 39 61 49 48 10 -13 6 -23 -24 -60z m412 -9 l6 -29 -20 24 c-14 15
-21 36 -20 60 l1 36 13 -31 c8 -17 17 -44 20 -60z m260 -224 c-8 -13 -3 -13
30 0 19 7 24 7 19 -1 -4 -8 1 -9 16 -4 21 7 23 5 17 -25 -4 -17 -16 -53 -27
-78 l-21 -46 -25 29 c-55 66 -60 129 -11 134 5 1 5 -3 2 -9z m-1360 -429 c-4
-18 -13 -31 -21 -31 -11 0 -14 6 -9 23 4 12 9 30 12 41 9 31 26 1 18 -33z
m-34 -68 c-12 -20 -14 -14 -5 12 4 9 9 14 11 11 3 -2 0 -13 -6 -23z m712 -60
c9 -3 17 -9 17 -15 0 -5 9 -18 20 -30 46 -49 127 -388 93 -388 -5 0 -34 17
-64 38 -43 31 -53 43 -51 63 6 51 11 163 6 148 -10 -33 -139 2 -152 40 -3 10
0 12 12 8 11 -5 16 -1 16 13 0 12 7 20 16 20 10 0 14 5 10 15 -3 9 1 18 10 22
8 3 13 12 10 19 -3 7 0 16 5 20 6 3 8 15 6 26 -4 15 -2 18 11 13 9 -4 25 -10
35 -12z m634 -245 c0 -101 0 -103 -29 -130 -36 -34 -50 -36 -43 -5 2 12 9 55
14 95 6 48 18 85 33 108 13 19 23 34 24 34 1 0 1 -46 1 -102z m-1437 2 c-8 -5
-17 -7 -19 -4 -3 3 1 9 9 14 8 5 17 7 19 4 3 -3 -1 -9 -9 -14z"/>
<path d="M776 1000 c4 -14 8 -34 9 -45 1 -11 5 -31 8 -45 4 -14 11 -58 16 -99
10 -76 35 -123 108 -207 16 -18 38 -44 51 -60 12 -16 22 -23 22 -17 0 6 -7 16
-15 23 -8 7 -15 17 -15 23 0 7 4 7 12 -1 7 -7 16 -12 21 -12 5 0 -9 20 -31 44
-81 87 -90 109 -94 229 -3 71 -9 112 -18 120 -10 10 -11 9 -6 -3 4 -8 -11 5
-34 30 -34 37 -40 41 -34 20z"/>
<path d="M1040 874 c-19 -14 -56 -46 -82 -71 l-47 -46 19 -36 c24 -46 74 -105
65 -76 -5 16 0 14 26 -10 l33 -30 -18 28 c-10 16 -15 31 -12 35 4 3 30 -4 59
-17 80 -34 86 -35 36 -4 -26 15 -48 33 -49 38 -1 6 22 18 52 27 l53 18 -43 -5
c-24 -3 -59 -3 -78 1 l-34 6 23 18 c12 10 31 20 42 23 11 4 -1 4 -27 2 -27 -3
-48 -1 -48 3 0 4 9 21 21 37 21 32 51 86 47 84 -2 0 -19 -12 -38 -25z"/>
<path d="M751 834 c0 -11 3 -14 6 -6 3 7 2 16 -1 19 -3 4 -6 -2 -5 -13z"/>
<path d="M761 784 c0 -11 3 -14 6 -6 3 7 2 16 -1 19 -3 4 -6 -2 -5 -13z"/>
<path d="M1448 713 c7 -3 16 -2 19 1 4 3 -2 6 -13 5 -11 0 -14 -3 -6 -6z"/>
<path d="M1238 593 c7 -3 16 -2 19 1 4 3 -2 6 -13 5 -11 0 -14 -3 -6 -6z"/>
<path d="M240 1260 c0 -5 5 -10 10 -10 6 0 10 5 10 10 0 6 -4 10 -10 10 -5 0
-10 -4 -10 -10z"/>
<path d="M2005 850 c-3 -6 1 -7 9 -4 18 7 21 14 7 14 -6 0 -13 -4 -16 -10z"/>
<path d="M1810 765 c-7 -8 -8 -15 -2 -15 5 0 15 7 22 15 7 8 8 15 2 15 -5 0
-15 -7 -22 -15z"/>
</g>
</svg>
