<?xml version="1.0" standalone="no"?>
<!DOCTYPE svg PUBLIC "-//W3C//DTD SVG 20010904//EN"
 "http://www.w3.org/TR/2001/REC-SVG-20010904/DTD/svg10.dtd">
<svg version="1.0" xmlns="http://www.w3.org/2000/svg"
 width="861.000000pt" height="453.000000pt" viewBox="0 0 861.000000 453.000000"
 preserveAspectRatio="xMidYMid meet">

<g transform="translate(0.000000,453.000000) scale(0.100000,-0.100000)"
fill="#000000" stroke="none">
<path d="M4974 3810 c-43 -10 -99 -45 -118 -75 -42 -64 -49 -126 -53 -487 l-5
-347 -1072 -3 c-971 -4 -1077 -6 -1131 -21 -110 -32 -184 -76 -276 -167 -72
-70 -93 -100 -127 -170 -22 -47 -45 -109 -52 -139 -17 -73 -15 -223 5 -296 45
-174 168 -325 337 -415 121 -65 86 -63 1253 -69 l1060 -6 5 -360 c5 -350 6
-361 28 -402 56 -105 110 -138 217 -131 55 3 69 9 107 40 76 62 599 571 858
834 300 305 402 420 442 501 29 60 30 65 26 180 -5 141 -15 166 -122 292 -190
226 -1166 1185 -1240 1220 -51 24 -101 31 -142 21z"/>
</g>
</svg>
