<?xml version="1.0" standalone="no"?>
<!DOCTYPE svg PUBLIC "-//W3C//DTD SVG 20010904//EN"
 "http://www.w3.org/TR/2001/REC-SVG-20010904/DTD/svg10.dtd">
<svg version="1.0" xmlns="http://www.w3.org/2000/svg"
 width="689.000000pt" height="362.000000pt" viewBox="0 0 689.000000 362.000000"
 preserveAspectRatio="xMidYMid meet">

<g transform="translate(0.000000,362.000000) scale(0.100000,-0.100000)"
fill="#000000" stroke="none">
<path d="M3927 3025 c-74 -51 -87 -116 -87 -457 l0 -248 -807 -1 c-445 0 -844
-4 -889 -8 -161 -15 -313 -123 -387 -273 -44 -89 -56 -141 -57 -235 0 -192
116 -372 298 -460 104 -50 147 -52 1064 -52 l776 -1 4 -287 3 -288 27 -50 c15
-27 39 -59 54 -69 39 -28 122 -33 170 -10 43 20 746 711 940 923 140 153 158
192 152 321 -6 111 -19 136 -156 285 -175 192 -863 870 -917 904 -64 41 -133
43 -188 6z m538 -585 c379 -379 501 -508 532 -564 16 -27 16 -105 0 -133 -28
-51 -184 -215 -564 -594 l-403 -402 0 219 c0 121 -3 282 -7 360 l-6 141 -945
8 -945 7 -53 25 c-63 30 -137 105 -167 171 -16 36 -22 66 -22 128 0 72 4 87
34 148 36 70 86 121 150 153 32 15 79 18 391 24 195 4 626 7 958 8 l602 1 0
294 c0 311 6 416 24 416 6 0 195 -185 421 -410z"/>
</g>
</svg>
